<svg xmlns="http://www.w3.org/2000/svg" viewBox="0 0 231 234">
<path fill="#ffffff" d="M190.4,0c-10.4,0-20.6,4.3-28.1,11.8c-0.2,0.1-0.3,0.3-0.4,0.4l-46.4,46.4L68.5,12c-0.2-0.1-0.3-0.3-0.5-0.4l-0.2-0.2C60.4,4,50.5,0,40.1,0C18.6,0,1,17.4,0.6,39v155.9C0.9,216.5,18.5,234,40.1,234c10.4,0,20.6-4.3,28.1-11.8c0.2-0.1,0.3-0.3,0.4-0.4l46.8-46.8l46.5,47c0.2,0.1,0.3,0.3,0.5,0.4l0.2,0.2c7.4,7.4,17.3,11.4,27.7,11.4c21.5,0,40.1-17.4,40.5-39V39.1C230.6,17.5,212,0,190.4,0z M206.9,190.4c0,8.7-8,15.7-16.5,15.7c-4.1,0-8-1.7-10.9-4.6c-0.2-0.2-0.3-0.4-0.5-0.5l-0.2-0.2L74.7,99.6l-17,17l40.8,41.2l-47.3,43.5l-0.3,0.3c-2.9,2.8-6.8,4.4-10.7,4.4c-8.6,0-15.5-7-15.5-15.7V43.6c0-8.7,7-15.7,15.5-15.7c4.1,0,8,1.7,10.9,4.6c0.2,0.2,0.3,0.4,0.5,0.5l0.2,0.2l105.1,100.2l17-17l-41.2-40.8l46.7-42.9l0.3-0.3c2.9-2.8,6.8-4.4,10.7-4.4c8.6,0,16.5,7,16.5,15.7V190.4z"/>
</svg>
