<svg width="24" height="24" viewBox="0 0 24 24" fill="none" xmlns="http://www.w3.org/2000/svg">
<g clip-path="url(#clip0_2_1685)">
<path d="M12 0C18.624 0 24 5.376 24 12C24 18.624 18.624 24 12 24C5.376 24 0 18.624 0 12C2.58008e-07 5.376 5.376 2.58e-07 12 0ZM8.87988 16.7998C9.50297 19.6636 10.6646 21.593 11.9941 21.5986C13.3236 21.5927 14.4854 19.6634 15.1084 16.7998H8.87988ZM3.69629 16.7998C4.60829 18.3718 5.95227 19.6678 7.57227 20.5078C7.06828 19.4278 6.69564 18.1678 6.43164 16.7998H3.69629ZM17.5557 16.7998C17.3037 18.1677 16.92 19.4278 16.416 20.5078C18.036 19.6678 19.38 18.3718 20.292 16.7998H17.5557ZM2.71191 9.59961C2.51991 10.3676 2.40039 11.172 2.40039 12C2.40039 12.828 2.50791 13.6324 2.71191 14.4004H6.0957C6.0237 13.6084 5.98828 12.804 5.98828 12C5.98828 11.196 6.0237 10.3916 6.0957 9.59961H2.71191ZM8.51953 9.59961C8.44753 10.3676 8.40039 11.172 8.40039 12C8.40039 12.828 8.44753 13.6324 8.51953 14.4004H15.4805C15.5525 13.6324 15.5996 12.828 15.5996 12C15.5996 11.172 15.5525 10.3676 15.4805 9.59961H8.51953ZM17.9043 9.59961C17.9763 10.3916 18.0117 11.196 18.0117 12C18.0117 12.804 17.9763 13.6084 17.9043 14.4004H21.2881C21.4801 13.6324 21.5996 12.828 21.5996 12C21.5996 11.172 21.4921 10.3676 21.2881 9.59961H17.9043ZM7.57227 3.49219C5.95227 4.33219 4.60829 5.6282 3.69629 7.2002H6.43164C6.68364 5.83222 7.06828 4.57218 7.57227 3.49219ZM12 2.40039C10.668 2.40039 9.50388 4.3322 8.87988 7.2002H15.1201C14.4961 4.3322 13.332 2.40039 12 2.40039ZM16.4277 3.49219C16.9317 4.57218 17.3044 5.83222 17.5684 7.2002H20.3037C19.3917 5.6282 18.0477 4.33219 16.4277 3.49219Z" fill="white"/>
</g>
<defs>
<clipPath id="clip0_2_1685">
<rect width="24" height="24" fill="white"/>
</clipPath>
</defs>
</svg>
