<svg width="24" height="24" viewBox="0 0 24 24" fill="none" xmlns="http://www.w3.org/2000/svg">
<path fill-rule="evenodd" clip-rule="evenodd" d="M11.2439 0.192082C11.7238 0.0121132 12.2637 0.0121761 12.7556 0.192082L21.2878 3.39618V3.38349C22.1998 3.73149 22.7996 4.63204 22.7996 5.65204V10.7995C22.7996 17.4715 18.648 22.6443 12.24 23.9763C12.168 24.0002 12.0837 23.9997 11.9998 23.9997C11.9158 23.9997 11.8435 23.9883 11.7595 23.9763C5.33972 22.6441 1.19995 17.4714 1.19995 10.7995V5.66376C1.20003 4.64396 1.8119 3.73226 2.71167 3.39618L11.2439 0.192082ZM3.55151 5.64032L3.60034 10.7878C3.60034 16.1997 6.88784 20.4001 11.9998 21.5642C17.1118 20.3882 20.4001 16.1878 20.4001 10.7878V5.65204L11.9998 2.47236L3.55151 5.64032ZM11.9998 7.18818C13.9797 7.18818 15.6002 8.80787 15.6003 10.7878C15.6003 12.3597 14.5919 13.6795 13.2 14.1716V16.7878H10.7996V14.1716C9.4078 13.6674 8.40015 12.3476 8.40015 10.7878C8.40024 8.80793 10.0199 7.18828 11.9998 7.18818ZM11.9998 9.58759C11.3399 9.5877 10.7997 10.1279 10.7996 10.7878C10.7996 11.4477 11.3398 11.9879 11.9998 11.988C12.6598 11.988 13.2 11.4478 13.2 10.7878C13.1999 10.1279 12.6597 9.58759 11.9998 9.58759Z" fill="white"/>
</svg>
