<svg width="24" height="24" viewBox="0 0 24 24" fill="none" xmlns="http://www.w3.org/2000/svg">
<path d="M10.7998 2.3999C11.4598 2.3999 12 2.9401 12 3.6001V20.3999C12 21.0599 11.4598 21.6001 10.7998 21.6001H9.92383C9.63593 21.6001 9.34778 21.4922 9.13184 21.3003L4.01953 16.8003H2.40039C1.08039 16.8003 0 15.7199 0 14.3999V9.6001C0 8.2801 1.08039 7.19971 2.40039 7.19971H4.01953L9.13184 2.69971C9.34779 2.50775 9.63589 2.39995 9.92383 2.3999H10.7998ZM5.60352 8.99951C5.17153 9.38347 4.6075 9.6001 4.01953 9.6001H2.40039V14.3999H4.01953C4.60732 14.3999 5.1596 14.6158 5.60352 14.9995L9.59961 18.5161V5.48389L5.60352 8.99951ZM23.6396 9.25146L20.8916 11.9995L23.6396 14.7476L21.9482 16.4399L19.2002 13.6919L16.4521 16.4399L14.7598 14.7476L17.5078 11.9995L14.7598 9.25146L16.4521 7.56006L19.2002 10.3081L21.9482 7.56006L23.6396 9.25146Z" fill="white"/>
</svg>
