<svg width="24" height="24" viewBox="0 0 24 24" fill="none" xmlns="http://www.w3.org/2000/svg">
<path d="M3.59961 0V2.40039H2.40039V7.2002C2.4005 9.18011 4.02007 10.7998 6 10.7998C7.97994 10.7998 9.5995 9.18011 9.59961 7.2002V2.40039H8.40039V0H9.59961C10.9196 0 12 1.08039 12 2.40039V7.2002C11.9999 10.104 9.93605 12.528 7.2002 13.0801V16.7998C7.2002 19.4518 9.348 21.5996 12 21.5996C14.652 21.5996 16.7998 19.4518 16.7998 16.7998V10.0078C15.0719 9.47974 13.7998 7.89592 13.7998 6C13.7998 3.684 15.684 1.79981 18 1.7998C20.316 1.7998 22.2002 3.684 22.2002 6C22.2002 7.89592 20.9281 9.49174 19.2002 10.0078V16.7998C19.2002 20.7718 15.972 24 12 24C8.028 24 4.7998 20.7718 4.7998 16.7998V13.0801C2.06395 12.516 9.27883e-05 10.092 0 7.2002V2.40039C0 1.08039 1.08039 0 2.40039 0H3.59961ZM18 4.2002C17.004 4.2002 16.2002 5.004 16.2002 6C16.2002 6.996 17.004 7.7998 18 7.7998C18.996 7.7998 19.7998 6.996 19.7998 6C19.7998 5.004 18.996 4.2002 18 4.2002Z" fill="white"/>
</svg>
