<svg width="297" height="40" viewBox="0 0 297 40" fill="none" xmlns="http://www.w3.org/2000/svg">
<g clip-path="url(#clip0_0_7)">
<path d="M59.056 13.2488C62.4449 13.2488 64.6728 15.6038 64.6728 19.152V29.2H60.3739V20.6278C60.3739 18.6182 59.1502 17.268 57.3929 17.268C55.4788 17.268 54.2237 18.7124 54.2237 20.8162V29.2H49.9248V13.6256H53.6589L54.2237 16.0748H54.3178C54.8513 14.3792 56.734 13.2488 59.056 13.2488ZM75.7236 29.5454C70.7971 29.5454 67.471 26.2798 67.471 21.3814C67.471 16.483 70.7971 13.2174 75.7236 13.2174C80.6501 13.2174 83.9449 16.483 83.9449 21.3814C83.9449 26.2798 80.6501 29.5454 75.7236 29.5454ZM75.7236 25.5262C78.0456 25.5262 79.5518 23.862 79.5518 21.3814C79.5518 18.9008 78.0456 17.2366 75.7236 17.2366C73.4016 17.2366 71.864 18.9008 71.864 21.3814C71.864 23.862 73.4016 25.5262 75.7236 25.5262ZM95.07 13.6256H96.9527V17.9274H94.5679C92.5283 17.9274 91.2104 19.623 91.2104 22.1978V29.2H86.9115V13.6256H90.6455L91.2104 16.5458H91.2417C91.6811 14.7874 93.1872 13.6256 95.07 13.6256ZM110.035 6.0896H114.334V29.2H110.6L110.035 26.7822H109.941C109.439 28.4464 107.588 29.5768 105.329 29.5768C101.061 29.5768 98.237 26.3112 98.237 21.4128C98.237 16.5144 101.061 13.2488 105.329 13.2488C107.588 13.2488 109.439 14.3792 109.941 16.012H110.035V6.0896ZM106.333 25.6518C108.561 25.6518 110.035 23.9562 110.035 21.4128C110.035 18.8694 108.561 17.1738 106.333 17.1738C104.105 17.1738 102.63 18.8694 102.63 21.4128C102.63 23.9562 104.105 25.6518 106.333 25.6518ZM126.992 13.2488C130.381 13.2488 132.609 15.6038 132.609 19.152V29.2H128.31V20.6592C128.31 18.6496 127.118 17.268 125.329 17.268C123.415 17.268 122.16 18.7124 122.16 20.8162V29.2H117.861V6.0896H122.16V16.0748H122.254C122.788 14.3792 124.67 13.2488 126.992 13.2488ZM150.752 21.3186V22.763H139.487C139.895 24.7726 141.307 25.903 143.44 25.903C145.135 25.903 146.421 25.1808 146.923 23.9562L150.312 25.3692C149.214 27.8812 146.453 29.5768 143.44 29.5768C138.608 29.5768 135.407 26.3112 135.407 21.4128C135.407 16.5144 138.514 13.2488 143.189 13.2488C147.708 13.2488 150.752 16.483 150.752 21.3186ZM143.064 16.9226C141.087 16.9226 139.769 18.1472 139.455 20.251H146.672C146.484 18.1472 145.198 16.9226 143.064 16.9226ZM167.683 25.6518H168.436V29.2H166.145C164.545 29.2 163.447 28.572 162.976 27.3788C161.941 28.7918 160.215 29.5768 157.987 29.5768C154.692 29.5768 152.778 27.9126 152.778 25.0238C152.778 22.6374 154.504 21.036 157.485 20.5964L161.501 19.9684C162.286 19.8428 162.694 19.3404 162.694 18.681V18.6182C162.694 17.4878 161.784 16.7656 160.246 16.7656C158.646 16.7656 157.485 17.6762 157.234 19.2148L153.437 18.2728C154.221 15.1014 156.7 13.2488 160.309 13.2488C164.545 13.2488 166.993 15.3212 166.993 18.838V24.7726C166.993 25.3378 167.244 25.6518 167.683 25.6518ZM159.399 26.4682C161.376 26.4682 162.694 25.118 162.694 23.0456V22.4804L159.022 23.0456C157.83 23.234 157.077 23.862 157.077 24.804C157.077 25.8402 157.955 26.4682 159.399 26.4682ZM178.719 29.2H175.958C172.569 29.2 170.623 27.316 170.623 23.9562V6.0896H174.922V23.705C174.922 24.6156 175.487 25.1494 176.428 25.1494H178.719V29.2ZM190.248 17.3936H185.667V23.705C185.667 24.7726 186.42 25.4006 187.675 25.4006H190.248V29.2H186.702C183.313 29.2 181.368 27.316 181.368 23.9562V17.3936H177.916V13.6256H181.368V8.79H185.667V13.6256H190.248V17.3936ZM202.16 13.2488C205.55 13.2488 207.778 15.6038 207.778 19.152V29.2H203.479V20.6592C203.479 18.6496 202.286 17.268 200.497 17.268C198.584 17.268 197.329 18.7124 197.329 20.8162V29.2H193.03V6.0896H197.329V16.0748H197.423C197.956 14.3792 199.839 13.2488 202.16 13.2488ZM226.002 13.2488C229.39 13.2488 231.618 15.6038 231.618 19.152V29.2H227.319V20.6278C227.319 18.6182 226.096 17.268 224.339 17.268C222.424 17.268 221.169 18.7124 221.169 20.8162V29.2H216.87V13.6256H220.603L221.169 16.0748H221.263C221.797 14.3792 223.679 13.2488 226.002 13.2488ZM242.669 29.5454C237.742 29.5454 234.416 26.2798 234.416 21.3814C234.416 16.483 237.742 13.2174 242.669 13.2174C247.595 13.2174 250.891 16.483 250.891 21.3814C250.891 26.2798 247.595 29.5454 242.669 29.5454ZM242.669 25.5262C244.991 25.5262 246.498 23.862 246.498 21.3814C246.498 18.9008 244.991 17.2366 242.669 17.2366C240.346 17.2366 238.809 18.9008 238.809 21.3814C238.809 23.862 240.346 25.5262 242.669 25.5262ZM262.016 13.6256H263.898V17.9274H261.514C259.473 17.9274 258.156 19.623 258.156 22.1978V29.2H253.857V13.6256H257.591L258.156 16.5458H258.186C258.626 14.7874 260.133 13.6256 262.016 13.6256ZM280.113 25.6518H280.867V29.2H278.576C276.975 29.2 275.878 28.572 275.407 27.3788C274.371 28.7918 272.644 29.5768 270.418 29.5768C267.122 29.5768 265.209 27.9126 265.209 25.0238C265.209 22.6374 266.934 21.036 269.916 20.5964L273.932 19.9684C274.717 19.8428 275.125 19.3404 275.125 18.681V18.6182C275.125 17.4878 274.213 16.7656 272.676 16.7656C271.075 16.7656 269.916 17.6762 269.664 19.2148L265.867 18.2728C266.652 15.1014 269.131 13.2488 272.74 13.2488C276.975 13.2488 279.424 15.3212 279.424 18.838V24.7726C279.424 25.3378 279.674 25.6518 280.113 25.6518ZM271.829 26.4682C273.806 26.4682 275.125 25.118 275.125 23.0456V22.4804L271.453 23.0456C270.26 23.234 269.507 23.862 269.507 24.804C269.507 25.8402 270.386 26.4682 271.829 26.4682Z" fill="#0C1A3D"/>
<path d="M32.4322 5.93354e-05C30.63 0.014037 28.9061 0.73925 27.6354 2.01806C27.608 2.03538 27.5848 2.05862 27.5674 2.08606L19.6268 10.0181L11.5982 2.05206C11.5642 2.03406 11.5462 2.00006 11.5122 1.98206L11.4783 1.94806C10.8572 1.32707 10.1194 0.835234 9.30743 0.5009C8.4955 0.166568 7.62544 -0.00364974 6.74746 5.93354e-05C4.97507 0.00764562 3.27617 0.709702 2.01488 1.95576C0.753603 3.20182 0.0302992 4.89272 0 6.66606V33.316C0.0230745 35.0934 0.743509 36.7904 2.00585 38.0408C3.26818 39.2912 4.97121 39.995 6.74746 40C8.54972 39.9866 10.2737 39.2612 11.5442 37.982C11.5782 37.966 11.5962 37.932 11.6142 37.914L19.6088 29.914L27.5514 37.948C27.5854 37.966 27.6034 38 27.6374 38.018L27.6714 38.052C28.2927 38.6732 29.0308 39.1652 29.8431 39.4996C30.6554 39.834 31.5258 40.004 32.4042 40C36.0777 40 39.2556 37.026 39.3235 33.334V6.68406C39.2895 3.00006 36.1117 5.93354e-05 32.4322 5.93354e-05ZM35.2503 32.548C35.2503 34.034 33.8832 35.23 32.4322 35.23C32.0852 35.228 31.7422 35.1576 31.4226 35.0226C31.1029 34.8878 30.8131 34.6912 30.5694 34.444C30.5354 34.41 30.5194 34.376 30.4835 34.358L30.4495 34.324L12.6615 17.0261L9.75343 19.9321L16.7227 26.974L8.64818 34.41L8.59821 34.462C8.2247 34.8282 7.75078 35.0748 7.23677 35.1704C6.72277 35.266 6.19193 35.2066 5.71185 34.9994C5.23178 34.7922 4.82415 34.4468 4.5409 34.007C4.25763 33.5672 4.11155 33.0532 4.12122 32.53V7.45206C4.11803 6.74634 4.39416 6.06804 4.88929 5.56548C5.38439 5.0629 6.05822 4.77692 6.76345 4.77006C7.11033 4.7721 7.4534 4.84256 7.77305 4.97744C8.09267 5.1123 8.3826 5.30894 8.62619 5.55606C8.66017 5.59006 8.67616 5.62406 8.71213 5.64206L8.74611 5.67606L26.7 22.8L29.6041 19.8941L22.5648 12.9241L30.5434 5.60006L30.5934 5.54806C31.0849 5.06592 31.7438 4.79284 32.4322 4.78606C33.9012 4.78606 35.2503 5.98606 35.2503 7.47006V32.548Z" fill="#0C1A3D"/>
</g>
<defs>
<clipPath id="clip0_0_7">
<rect width="297" height="40" fill="white"/>
</clipPath>
</defs>
</svg>
