<svg width="24" height="24" viewBox="0 0 24 24" fill="none" xmlns="http://www.w3.org/2000/svg">
<g clip-path="url(#clip0_2_1700)">
<path d="M9.59961 16.7998C5.62779 16.8 2.40039 20.0281 2.40039 24H0C5.17554e-07 18.7081 4.30779 14.4006 9.59961 14.4004V16.7998ZM23.0879 14.6035L19.6924 18L23.0879 21.3965L21.3965 23.0879L18 19.6924L14.6035 23.0879L12.9121 21.3965L16.3076 18L12.9121 14.6035L14.6035 12.9121L18 16.3076L21.3965 12.9121L23.0879 14.6035ZM9.59961 0C12.9116 0 15.5996 2.688 15.5996 6C15.5996 9.312 12.9116 12 9.59961 12C6.28779 11.9998 3.59961 9.31187 3.59961 6C3.59961 2.68813 6.28779 0.000211549 9.59961 0ZM9.59961 2.40039C7.61979 2.4006 6 4.02013 6 6C6 7.97987 7.61979 9.5994 9.59961 9.59961C11.5796 9.59961 13.2002 7.98 13.2002 6C13.2002 4.02 11.5796 2.40039 9.59961 2.40039Z" fill="white"/>
</g>
<defs>
<clipPath id="clip0_2_1700">
<rect width="24" height="24" fill="white"/>
</clipPath>
</defs>
</svg>
