<svg id="Sizes" xmlns="http://www.w3.org/2000/svg" viewBox="0 0 254 50"><defs><style>.cls-1{fill:#fff;}</style></defs><path class="cls-1" d="M40.56,0a8.56,8.56,0,0,0-6,2.52s-.06.07-.08.09l-9.92,9.91-10-10-.11-.08,0,0A8.3,8.3,0,0,0,8.44,0,8.48,8.48,0,0,0,0,8.33V41.65A8.46,8.46,0,0,0,8.44,50a8.55,8.55,0,0,0,6-2.52c.05,0,.07-.07.09-.09l10-10,9.94,10s.06.06.1.08l0,0A8.27,8.27,0,0,0,40.53,50a8.67,8.67,0,0,0,8.66-8.33V8.35A8.62,8.62,0,0,0,40.56,0Zm3.52,40.68A3.53,3.53,0,0,1,40.56,44a3.29,3.29,0,0,1-2.33-1c0-.05-.07-.09-.11-.11l0,0L15.83,21.28,12.2,24.91l8.72,8.81L10.81,43l-.06.07a3.3,3.3,0,0,1-5.6-2.42V9.32A3.34,3.34,0,0,1,8.46,6a3.29,3.29,0,0,1,2.33,1s.06.09.11.11l0,0L33.4,28.5,37,24.87l-8.8-8.72L38.21,7l.06-.07A3.32,3.32,0,0,1,40.56,6a3.51,3.51,0,0,1,3.52,3.36Z"/><path class="cls-1" d="M74,16.62c-2.88,0-5.21,1.41-5.87,3.53H68l-.7-3.06H62.65V36.52H68V26.05c0-2.63,1.56-4.43,3.93-4.43,2.18,0,3.7,1.69,3.7,4.19V36.52h5.32V24C80.94,19.57,78.18,16.62,74,16.62Z"/><path class="cls-1" d="M94.42,37c6.11,0,10.2-4.09,10.2-10.2s-4.09-10.19-10.2-10.19S84.19,20.66,84.19,26.77,88.31,37,94.42,37Zm0-5c-2.88,0-4.78-2.07-4.78-5.17s1.9-5.17,4.78-5.17,4.75,2.08,4.75,5.17S97.31,31.94,94.42,31.94Z"/><path class="cls-1" d="M118.18,17.09a4.75,4.75,0,0,0-4.74,3.66h0l-.71-3.66h-4.63V36.52h5.32V27.78c0-3.21,1.62-5.32,4.16-5.32h2.95V17.09Z"/><path class="cls-1" d="M136.73,7.69V20.06h-.11c-.62-2-2.92-3.44-5.72-3.44-5.3,0-8.78,4.09-8.78,10.2S125.62,37,130.9,37c2.8,0,5.08-1.41,5.72-3.48h.11l.71,3h4.63V7.69Zm-4.59,24.4c-2.76,0-4.6-2.11-4.6-5.3s1.84-5.29,4.6-5.29,4.59,2.11,4.59,5.29S134.89,32.09,132.14,32.09Z"/><path class="cls-1" d="M157.76,16.62c-2.89,0-5.22,1.41-5.88,3.53h-.11V7.69h-5.32V36.52h5.32V26.05c0-2.63,1.56-4.43,3.94-4.43,2.22,0,3.69,1.73,3.69,4.23V36.52h5.32V24C164.7,19.57,162,16.62,157.76,16.62Z"/><path class="cls-1" d="M187,26.69c0-6-3.78-10.07-9.38-10.07-5.79,0-9.64,4.09-9.64,10.2S172,37,177.93,37a9.25,9.25,0,0,0,8.52-5.26L182.24,30a4.36,4.36,0,0,1-4.31,2.44,4.59,4.59,0,0,1-4.9-3.91h14V26.69Zm-9.53-5.47a4.13,4.13,0,0,1,4.46,4.14H173C173.38,22.74,175,21.22,177.46,21.22Z"/><path class="cls-1" d="M208,32.09c-.53,0-.85-.38-.85-1.09V23.59c0-4.38-3-7-8.29-7-4.47,0-7.55,2.31-8.53,6.26l4.7,1.18A3.54,3.54,0,0,1,198.74,21c1.9,0,3,.9,3,2.31v.09A1.56,1.56,0,0,1,200.3,25l-5,.79c-3.7.56-5.83,2.54-5.83,5.53,0,3.62,2.37,5.69,6.45,5.69a7.29,7.29,0,0,0,6.18-2.74c.57,1.5,1.94,2.27,3.93,2.27h2.84V32.12H208Zm-10.28,1c-1.79,0-2.88-.79-2.88-2.07s.94-2,2.41-2.2l4.55-.71v.71A3.93,3.93,0,0,1,197.69,33.12Z"/><path class="cls-1" d="M211.92,36.52h5.32V7.69h-5.32Z"/><path class="cls-1" d="M229.06,31.79c-1.6,0-2.5-.79-2.5-2.11V21.79h5.36v-4.7h-5.34v-6h-5.32V30c0,4.19,2.42,6.54,6.6,6.54h4.41V31.79Z"/><path class="cls-1" d="M247.05,16.62c-2.88,0-5.21,1.41-5.87,3.53h-.13V7.69h-5.32V36.52h5.32V26.05c0-2.63,1.56-4.43,3.93-4.43s3.7,1.73,3.7,4.23V36.52H254V24C254,19.57,251.24,16.62,247.05,16.62Z"/></svg>