<svg width="150" height="13" viewBox="0 0 150 13" fill="none" xmlns="http://www.w3.org/2000/svg">
<g clip-path="url(#clip0_2_1818)">
<mask id="mask0_2_1818" style="mask-type:luminance" maskUnits="userSpaceOnUse" x="0" y="0" width="150" height="13">
<path d="M150 0H0V13H150V0Z" fill="white"/>
</mask>
<g mask="url(#mask0_2_1818)">
<path d="M9.48573 -5.54796e-05C10.091 -0.017612 10.6897 0.129137 11.2179 0.424547C11.7462 0.719957 12.1843 1.15295 12.4855 1.67737C12.7866 2.20179 12.9396 2.79798 12.9281 3.40237C12.9166 4.00676 12.741 4.5967 12.42 5.10929C14.731 3.31265 17.2821 -1.65157 20.7204 0.589399C21.221 0.98667 21.6057 1.51081 21.8343 2.10712C22.0628 2.70343 22.1269 3.35005 22.0198 3.97951L21.4331 5.31918L14.4328 12.3085C11.2034 14.2697 7.97162 11.3462 9.56997 7.95609L5.04182 12.476C4.48937 12.7787 3.86938 12.9373 3.23921 12.9373C2.60904 12.9373 1.98904 12.7787 1.43659 12.476C-0.0879473 11.5747 -0.427894 9.15435 0.556162 7.74621L7.72486 0.589399L9.48573 -5.54796e-05Z" fill="#0C1A3D"/>
<path d="M31.2013 0.338623H33.2976L39.5859 10.2998C39.572 6.99331 39.5581 3.68705 39.5442 0.381046H41.305C41.2911 4.49681 41.2772 8.61232 41.2633 12.7276L39.1252 12.6859L37.8675 10.7605L37.6998 10.2581L36.6099 8.8351V8.58429C35.3204 6.73893 34.1308 4.82592 33.0464 2.85348L32.9204 2.89516C32.9482 6.15949 32.9761 9.42406 33.0039 12.6889H31.1595C31.1735 8.57312 31.1874 4.45761 31.2013 0.342344" fill="#0C1A3D"/>
<path d="M67.9245 0.338623L69.5594 0.380302C69.5733 2.79369 69.5873 5.20708 69.6012 7.62047L73.6268 3.76966L75.6807 3.81134L72.5779 6.74224L72.4102 7.16052L75.9737 12.7268H73.9608L71.1101 8.20695L69.5594 9.7565V12.6859H67.8828C67.8967 8.57015 67.9106 4.45389 67.9245 0.338623Z" fill="#0C1A3D"/>
<path d="M80.6688 0.338623L82.3037 0.380302L82.3454 4.94188C84.0064 2.67783 87.8867 3.11844 88.2565 6.15576C88.2426 8.34588 88.2287 10.5362 88.2147 12.7268L86.5799 12.6852C86.4606 11.2301 86.7737 7.27885 86.4964 6.23987C86.0394 4.52807 82.9128 4.72976 82.3879 6.74224C82.1315 7.72541 82.4081 11.2927 82.3044 12.6852H80.6278C80.6417 8.5694 80.6557 4.45389 80.6696 0.338623" fill="#0C1A3D"/>
<path d="M100.037 0.338623L101.672 0.380302C101.658 4.49606 101.645 8.61158 101.631 12.7268L99.9957 12.6852C100.01 8.5694 100.024 4.45389 100.037 0.338623Z" fill="#0C1A3D"/>
<path d="M141.457 1.17603L143.175 1.2177C143.189 2.06864 143.203 2.91958 143.217 3.77052H146.319C146.333 2.91958 146.347 2.06864 146.36 1.2177H148.205V3.72884L149.966 3.8122C149.952 4.27265 149.938 4.7331 149.924 5.19354L148.205 5.23522V11.0948C149.483 11.813 150.251 10.3505 149.924 12.727C144.588 13.6067 146.884 8.48467 146.319 5.19354L143.174 5.23522V10.8432C143.353 11.6083 144.393 11.1707 144.935 11.3456V12.6853C139.891 13.4742 141.764 9.80796 141.413 5.23522L139.988 5.15187C139.922 3.10217 139.925 4.0712 141.413 3.64548C141.427 2.82233 141.441 1.99918 141.455 1.17603" fill="#0C1A3D"/>
<path d="M46.9648 3.51958C53.8979 2.93831 53.4461 14.1997 46.4616 12.8973C41.6807 12.0041 41.8127 3.95422 46.9648 3.51958ZM47.0483 5.02596C43.8717 5.41595 43.8568 11.7987 47.8027 11.4713C48.4067 11.3726 48.9608 11.0766 49.3781 10.6297C49.7955 10.1828 50.0523 9.61021 50.1085 9.0018C50.3665 6.95583 49.457 4.73049 47.0483 5.02596Z" fill="#0C1A3D"/>
<path d="M61.9724 3.51958C64.0255 3.33426 66.5027 4.10159 66.332 6.53309H64.7411L64.3222 5.36088C63.7056 4.67989 60.459 4.46182 60.8429 6.40731C61.1732 8.0819 66.8308 6.74372 66.628 10.4263L66.1248 11.766C64.8574 13.5902 58.7943 13.681 58.8726 9.96637H60.5492C60.6506 10.0125 60.8474 11.0746 61.2201 11.306C61.9463 11.7593 65.2458 11.9625 64.7836 10.0088C64.5167 8.88793 61.9053 9.00999 60.8012 8.54408C58.1502 7.42769 58.5774 3.82845 61.9746 3.52182" fill="#0C1A3D"/>
<path d="M93.5814 3.51969C96.4606 3.24804 98.3191 5.30592 98.4026 8.08127C98.4123 8.39683 98.4615 8.7511 98.2766 8.87614L91.6111 8.91782C91.5934 9.49947 91.7776 10.0694 92.1326 10.5309C92.4876 10.9924 92.9916 11.3172 93.5591 11.4502C94.1265 11.5832 94.7226 11.5162 95.2463 11.2606C95.7699 11.0049 96.1889 10.5764 96.4322 10.0476L98.1506 10.0893C97.9334 10.882 97.4728 11.5868 96.8336 12.1048C96.1945 12.6227 95.4089 12.9278 94.5871 12.977C88.445 13.4094 88.3786 4.00942 93.5807 3.51821M93.5807 5.02459C93.0294 5.14762 92.537 5.45584 92.186 5.89773C91.835 6.33962 91.6465 6.88841 91.6521 7.45237L96.641 7.41069C96.3428 5.75917 95.3229 4.77377 93.5807 5.02459Z" fill="#0C1A3D"/>
<path d="M106.242 3.51734C108.296 3.34542 110.715 4.1187 110.518 6.53085H108.922C108.856 4.32337 105.471 4.60024 105.107 5.65188C104.194 8.28284 110.4 6.65068 110.808 9.7535C111.315 13.5805 105.15 13.6981 103.681 11.763C103.296 11.2397 103.076 10.6127 103.052 9.96338H104.813L105.023 10.7583C105.597 11.9491 108.619 11.8553 108.963 10.7583C109.649 8.57683 105.683 9.31885 104.142 8.03798C102.621 6.77274 103.043 3.78527 106.239 3.51808" fill="#0C1A3D"/>
<path d="M115.465 3.51963C118.687 3.21746 120.534 5.90127 120.244 8.87831L113.411 8.91999C113.406 9.5057 113.601 10.0756 113.965 10.5355C114.328 10.9954 114.838 11.3178 115.409 11.4495C115.981 11.5812 116.58 11.5143 117.109 11.2598C117.637 11.0053 118.063 10.5784 118.316 10.0498L120.035 10.0915C119.716 11.1044 119.023 11.9581 118.096 12.479C117.169 12.9999 116.079 13.149 115.046 12.8958C110.379 12.0221 110.597 3.97661 115.465 3.51815M115.381 5.02453C113.885 5.25823 113.269 7.34885 113.452 7.45231L118.441 7.41063C118.432 7.03985 118.341 6.6756 118.175 6.34419C118.008 6.01277 117.77 5.72246 117.477 5.49422C117.184 5.26599 116.844 5.10552 116.481 5.02443C116.119 4.94333 115.743 4.94362 115.381 5.02527" fill="#0C1A3D"/>
<path d="M125.862 3.51974C127.216 3.37089 128.879 4.00649 129.341 5.40346C129.778 6.72602 129.358 10.9929 129.508 12.6861H127.748C127.618 11.2519 128.022 6.75206 127.496 5.82248C126.784 4.56319 124.227 5.0224 123.723 6.40821C123.351 7.42488 123.659 11.2682 123.556 12.6861L121.837 12.7277C121.823 9.75615 121.809 6.78456 121.795 3.81298L123.43 3.7713C123.43 6.41119 123.471 3.77725 125.862 3.51974Z" fill="#0C1A3D"/>
<path d="M134.833 3.51972C135.998 3.42498 137.159 3.75175 138.103 4.44037C139.515 5.60886 139.892 8.71466 139.528 8.8769L132.863 8.91858C132.843 9.50111 133.026 10.0724 133.381 10.5352C133.736 10.998 134.241 11.3237 134.809 11.4569C135.378 11.5901 135.975 11.5225 136.499 11.2657C137.023 11.0089 137.442 10.5787 137.684 10.0484L139.403 10.09C138.689 12.4263 136.378 13.3953 134.078 12.8103C129.805 11.7244 129.996 3.96181 134.833 3.51972ZM134.749 5.02536C134.205 5.14907 133.722 5.46023 133.385 5.90421C133.047 6.34818 132.878 6.89659 132.905 7.45314L137.81 7.41146C137.805 7.03938 137.717 6.67311 137.551 6.33973C137.385 6.00635 137.147 5.71437 136.853 5.48537C136.559 5.25638 136.218 5.09621 135.854 5.01672C135.49 4.93722 135.112 4.93969 134.749 5.02536Z" fill="#0C1A3D"/>
<path d="M57.5286 3.60303L58.4925 3.64471V5.23519C53.7758 5.08634 55.5679 9.27578 55.2228 12.6852L53.5036 12.7269C53.4897 9.75533 53.4758 6.78375 53.4619 3.81216L55.181 3.77048C55.1363 6.64035 55.1721 3.7943 57.5286 3.60303Z" fill="#0C1A3D"/>
</g>
</g>
<defs>
<clipPath id="clip0_2_1818">
<rect width="150" height="13" fill="white"/>
</clipPath>
</defs>
</svg>
